<?xml version="1.0" standalone="no"?>
<!DOCTYPE svg PUBLIC "-//W3C//DTD SVG 20010904//EN"
 "http://www.w3.org/TR/2001/REC-SVG-20010904/DTD/svg10.dtd">
<svg version="1.0" xmlns="http://www.w3.org/2000/svg"
 width="520.000000pt" height="550.000000pt" viewBox="0 0 512.000000 512.000000"
 preserveAspectRatio="xMidYMid meet">

<g transform="translate(0.000000,512.000000) scale(0.100000,-0.100000)"
fill="#3d0c5e" stroke="none">
<path d="M2332 5110 c-860 -84 -1596 -564 -2015 -1315 -145 -260 -246 -567
-293 -890 -25 -166 -25 -524 0 -690 83 -573 329 -1069 727 -1465 695 -694
1728 -929 2657 -605 734 255 1318 842 1570 1577 97 282 136 520 136 838 0 317
-39 556 -135 837 -283 824 -980 1455 -1827 1654 -232 54 -595 81 -820 59z
m401 -1792 c27 -14 57 -69 57 -103 0 -16 -49 -327 -109 -691 -75 -457 -114
-669 -126 -687 -25 -39 -94 -62 -139 -47 -53 17 -86 62 -86 116 0 54 207 1318
222 1357 11 29 49 61 83 70 24 6 73 -1 98 -15z m325 -112 c15 -8 154 -142 309
-298 297 -298 311 -315 292 -380 -11 -43 -580 -613 -621 -623 -87 -22 -172 73
-139 153 7 16 119 135 249 265 l238 237 -238 237 c-130 130 -242 250 -249 265
-16 39 -4 90 29 120 43 41 84 48 130 24z m-880 -56 c34 -33 44 -70 31 -114 -6
-21 -84 -106 -241 -263 l-233 -233 232 -232 c127 -128 236 -243 242 -255 28
-56 3 -130 -54 -157 -69 -33 -75 -29 -388 282 -159 158 -295 300 -304 316 -34
64 -23 79 260 365 144 145 280 276 301 292 55 41 113 40 154 -1z"/>
</g>
</svg>
